#!OML:ASF F:\VICON\USERDATA\Patient Classification 1\PLAYGROUND\JustinFriday\JustinFriday.ASF
:FULLY-SPECIFIED
:DEGREES
2115
root -18.8498 17.5257 11.4098 210.538 78.1165 -145.559
lowerback 14.7986 1.9506 2.39897
upperback 6.08484 3.36519 2.59754
thorax -1.88156 1.842 0.816551
lowerneck -24.5721 8.08475 4.2701
upperneck 3.4066 9.99823 -2.86898
head 5.16029 4.87227 -0.443585
rclavicle -7.73397e-015 9.7156e-015
rhumerus 92.25 -16.7291 -61.2535
rradius 28.8874
rwrist 20.4801
rhand -27.823 -365.825
rfingers 7.12502
rthumb -1.21492 -395.801
lclavicle -7.73397e-015 9.7156e-015
lhumerus 103.229 -1.15132 59.1891
lradius 22.3664
lwrist -23.3567
lhand -21.0095 -15.3994
lfingers 7.12502
lthumb 5.36517 14.5126
rfemur -16.6959 -3.7486 27.7065
rtibia 29.0296
rfoot -9.32111 -10.2565
rtoes 25.3269
lfemur -18.718 3.7135 -11.2559
ltibia 26.8513
lfoot -4.3068 -9.88642
ltoes 22.4449
2116
root -18.8337 17.525 11.4209 210.062 78.1688 -146.034
lowerback 14.7235 2.03756 2.21351
upperback 6.14554 3.44712 2.50044
thorax -1.78244 1.8828 0.811277
lowerneck -24.5325 8.25241 4.09754
upperneck 3.16214 10.2577 -2.66289
head 5.06217 5.02015 -0.329922
rclavicle -1.34863e-014 -1.31578e-014
rhumerus 92.0209 -17.115 -60.9322
rradius 29.0969
rwrist 19.9714
rhand -27.745 -366.028
rfingers 7.12502
rthumb -1.13959 -396.004
lclavicle -1.34863e-014 -1.31578e-014
lhumerus 103.64 -1.50927 59.566
lradius 21.9559
lwrist -23.9021
lhand -21.4128 -17.0766
lfingers 7.12502
lthumb 4.97577 12.845
rfemur -16.6179 -3.68281 27.6419
rtibia 28.9766
rfoot -9.28008 -10.399
rtoes 24.8652
lfemur -18.5339 1.9832 -11.1861
ltibia 26.8057
lfoot -5.40287 -8.43125
ltoes 20.7518
2117
root -18.8182 17.5383 11.4319 209.485 78.2585 -146.622
lowerback 14.6379 2.13202 2.03123
upperback 6.2177 3.53601 2.3193
thorax -1.66035 1.9278 0.716815
lowerneck -24.7699 8.40336 4.53356
upperneck 3.22225 10.3437 -2.87688
head 5.14988 5.05131 -0.44079
rclavicle -1.21259e-014 -1.3418e-015
rhumerus 91.843 -17.515 -61.095
rradius 29.3372
rwrist 19.9451
rhand -27.4872 -365.819
rfingers 7.12502
rthumb -0.89064 -395.797
lclavicle -1.21259e-014 -1.3418e-015
lhumerus 104.143 -2.00459 59.9469
lradius 21.464
lwrist -24.5219
lhand -21.9013 -19.0044
lfingers 7.12502
lthumb 4.50404 10.9278
rfemur -16.5143 -3.39116 27.5077
rtibia 28.9109
rfoot -9.41129 -10.6168
rtoes 25.2077
lfemur -18.5197 1.49287 -11.2861
ltibia 26.8174
lfoot -5.77968 -7.85266
ltoes 19.7822
2118
root -18.7999 17.5608 11.4418 208.339 78.397 -147.774
lowerback 14.5528 2.16923 1.70946
upperback 6.18963 3.53655 2.3429
thorax -1.66515 1.92121 0.924281
lowerneck -24.8148 8.42595 4.58309
upperneck 3.28956 10.3776 -3.09623
head 5.19483 5.04906 -0.509463
rclavicle -2.29099e-014 -1.39149e-015
rhumerus 91.5949 -17.4519 -60.7588
rradius 29.6011
rwrist 19.9327
rhand -27.4879 -366
rfingers 7.12502
rthumb -0.891342 -395.978
lclavicle -2.29099e-014 -1.39149e-015
lhumerus 103.724 -1.85195 59.7202
lradius 21.7908
lwrist -23.7348
lhand -21.6767 -17.6259
lfingers 7.12502
lthumb 4.72093 12.3015
rfemur -16.3781 -3.2962 27.2372
rtibia 28.8204
rfoot -9.55294 -10.6716
rtoes 25.594
lfemur -18.5762 1.93899 -11.6446
ltibia 26.9255
lfoot -5.79633 -8.01613
ltoes 21.7752
2119
root -18.7804 17.5569 11.4474 209.402 78.3498 -146.55
lowerback 14.6501 2.17779 1.97882
upperback 6.2007 3.59497 2.44808
thorax -1.69622 1.95498 0.86984
lowerneck -25.2084 8.52147 4.6377
upperneck 3.70734 10.4745 -3.15575
head 5.39464 5.08007 -0.500577
rclavicle -2.67156e-014 1.77229e-014
rhumerus 91.2562 -17.4865 -60.123
rradius 29.9361
rwrist 19.5239
rhand -27.7629 -366.557
rfingers 7.12502
rthumb -1.15694 -396.533
lclavicle -2.67156e-014 1.77229e-014
lhumerus 103.411 -1.7852 59.5157
lradius 22.2311
lwrist -23.0561
lhand -21.3982 -15.915
lfingers 7.12502
lthumb 4.98987 14.0062
rfemur -16.1154 -3.16527 27.5312
rtibia 28.6996
rfoot -9.66145 -10.7481
rtoes 25.938
lfemur -18.3942 1.3936 -11.274
ltibia 27.1141
lfoot -6.18961 -7.67863
ltoes 25.9041
2120
root -18.7609 17.5404 11.4504 211.392 78.2017 -144.386
lowerback 14.8092 2.13925 2.60088
upperback 6.21897 3.63815 2.41459
thorax -1.72121 1.98794 0.473707
lowerneck -24.812 8.67535 4.3118
upperneck 3.60593 10.7846 -3.12208
head 5.29788 5.23174 -0.42027
rclavicle -2.1096e-014 8.69683e-015
rhumerus 91.1395 -17.4082 -60.4432
rradius 30.2089
rwrist 19.7226
rhand -27.9655 -366.694
rfingers 7.12502
rthumb -1.35262 -396.669
lclavicle -2.1096e-014 8.69683e-015
lhumerus 103.328 -1.88401 59.2889
lradius 22.5896
lwrist -22.7987
lhand -21.7222 -17.2707
lfingers 7.12502
lthumb 4.67706 12.6577
rfemur -15.8611 -2.94846 28.054
rtibia 28.6015
rfoot -9.74741 -10.8172
rtoes 26.008
lfemur -18.2293 0.985572 -10.6334
ltibia 27.2924
lfoot -6.39856 -7.5892
ltoes 20.6565
2121
root -18.7405 17.539 11.456 211.582 78.0694 -144.042
lowerback 14.9426 2.00929 2.86964
upperback 6.13564 3.51204 2.45722
thorax -1.86741 1.92542 0.378942
lowerneck -24.0201 8.71983 3.51086
upperneck 3.40864 11.0625 -2.78952
head 5.06942 5.38675 -0.200661
rclavicle -2.50096e-014 9.93923e-015
rhumerus 91.0532 -16.7763 -60.9854
rradius 30.4726
rwrist 20.3336
rhand -27.8646 -366.424
rfingers 7.12502
rthumb -1.25513 -396.4
lclavicle -2.50096e-014 9.93923e-015
lhumerus 102.283 -1.26465 58.2408
lradius 23.8715
lwrist -21.4349
lhand -21.4901 -14.8807
lfingers 7.12502
lthumb 4.90109 15.0426
rfemur -15.5818 -3.00454 28.2079
rtibia 28.5383
rfoot -9.76764 -10.8439
rtoes 25.4149
lfemur -18.1392 1.28095 -10.478
ltibia 27.4358
lfoot -6.18986 -7.96095
ltoes 29.1129
